<svg width="360" height="360" viewBox="0 0 360 360" fill="none" xmlns="http://www.w3.org/2000/svg">
<path d="M312.6 32.7L253.65 44.4L294.75 97.5L324.3 91.5L312.6 32.7M209.55 53.1L180 58.95L221.25 111.9L250.65 106.05L209.55 53.1M136.05 67.5L106.5 73.65L147.75 126.6L177.15 120.75L136.05 67.5ZM62.4 82.5L47.7 85.35C39.9057 86.9073 33.048 91.494 28.6326 98.1031C24.2172 104.712 22.605 112.803 24.15 120.6L30 150L103.5 135.45L62.4 82.5ZM30 150V300C30 307.957 33.1607 315.587 38.7868 321.213C44.4129 326.839 52.0435 330 60 330H300C316.65 330 330 316.65 330 300V150H30Z" fill="url(#paint0_linear_20_60)"/>
<defs>
<linearGradient id="paint0_linear_20_60" x1="176.789" y1="32.7" x2="176.789" y2="330" gradientUnits="userSpaceOnUse">
<stop offset="0.171875" stop-color="#6600FF"/>
<stop offset="0.828125" stop-color="#00CC99"/>
</linearGradient>
</defs>
</svg>
