<svg width="448" height="355" viewBox="0 0 448 355" fill="none" xmlns="http://www.w3.org/2000/svg">
<path d="M446.34 260.308H19.0865C18.8964 260.308 18.7142 260.233 18.5798 260.098C18.4455 259.964 18.37 259.782 18.37 259.592C18.37 259.402 18.4455 259.219 18.5798 259.085C18.7142 258.951 18.8964 258.875 19.0865 258.875H446.34C446.53 258.875 446.712 258.951 446.846 259.085C446.981 259.219 447.056 259.402 447.056 259.592C447.056 259.782 446.981 259.964 446.846 260.098C446.712 260.233 446.53 260.308 446.34 260.308Z" fill="#D1D3D4"/>
<path d="M66.2009 296.016C65.632 296.013 65.0875 295.785 64.6852 295.383C64.2829 294.98 64.0553 294.436 64.0515 293.867V225.345C64.0515 224.775 64.278 224.228 64.6811 223.825C65.0841 223.422 65.6308 223.195 66.2009 223.195C66.7709 223.195 67.3176 223.422 67.7207 223.825C68.1238 224.228 68.3503 224.775 68.3503 225.345V293.867C68.3503 294.437 68.1238 294.984 67.7207 295.387C67.3176 295.79 66.7709 296.016 66.2009 296.016Z" fill="#231F20"/>
<path d="M348.916 233.455C349.064 242.868 347.028 252.187 342.969 260.681C331.104 285.484 303.206 300.802 275.736 307.222C252.738 312.581 228.851 312.796 205.237 311.807C180.161 310.761 154.01 308.01 132.874 294.483C112.96 281.545 98.0533 262.2 90.6177 239.645C82.0202 212.764 79.355 184.378 78.1227 156.192C77.7243 149.51 77.7626 142.809 78.2373 136.131C78.4672 133.543 78.8403 130.969 79.355 128.422C81.7093 117.26 87.1738 106.992 95.1171 98.8038C96.9294 96.9152 98.8428 95.1262 100.849 93.4447C124.191 74.0286 160.687 69.1854 186.638 86.4091C204.864 98.4742 223.306 107.215 235.973 126.044C239.813 131.775 243.023 137.851 246.835 143.554C257.976 159.846 273.904 172.274 292.416 179.119C297.095 180.777 301.922 181.986 306.831 182.73C320.143 184.965 332.838 185.997 340.863 199.767C346.279 209.038 348.271 219.943 348.815 230.661C348.815 231.392 348.887 232.094 348.901 232.796C348.901 233.011 348.916 233.226 348.916 233.455Z" fill="white"/>
<path d="M150.084 75.8341C163.042 75.6797 175.756 79.3643 186.623 86.4234C204.85 98.4886 223.292 107.229 235.959 126.058C239.799 131.79 243.009 137.865 246.82 143.568C257.961 159.86 273.889 172.288 292.401 179.133C297.086 180.787 301.918 181.991 306.831 182.73C320.128 184.965 332.838 185.997 340.863 199.767C346.279 209.038 348.271 219.943 348.815 230.661C348.815 231.392 348.887 232.094 348.901 232.796C348.901 233.04 348.901 233.255 348.901 233.484C349.05 242.897 347.014 252.216 342.955 260.709C331.09 285.513 303.191 300.831 275.722 307.251C259.215 311.105 242.235 312.294 225.241 312.294C218.563 312.294 211.886 312.108 205.18 311.836C180.104 310.79 153.953 308.039 132.817 294.512C112.902 281.573 97.9961 262.229 90.5605 239.674C81.963 212.793 79.2978 184.406 78.0655 156.221C77.6671 149.539 77.7054 142.837 78.1801 136.16C78.41 133.572 78.7831 130.998 79.2978 128.451C81.6521 117.289 87.1166 107.02 95.0599 98.8325C96.8722 96.9439 98.7856 95.1549 100.792 93.4734C114.694 82.1127 132.087 75.8885 150.041 75.8485M150.041 74.4156C131.758 74.4664 114.05 80.8061 99.8888 92.37C97.8395 94.0842 95.8877 95.9116 94.0425 97.8438C85.9382 106.234 80.3613 116.737 77.9508 128.15C77.427 130.749 77.0491 133.375 76.8188 136.017C76.324 142.76 76.2809 149.529 76.6898 156.278C77.8075 181.712 80.1575 211.546 89.2565 240.104C96.8369 262.953 111.94 282.558 132.101 295.716C153.394 309.343 179.803 312.208 205.18 313.269C212.617 313.584 219.179 313.727 225.241 313.727C245.029 313.727 261.164 312.108 276.052 308.64C308.636 301.046 333.498 283.794 344.244 261.354C348.401 252.655 350.486 243.11 350.334 233.47V233.097C350.327 232.997 350.327 232.896 350.334 232.796C350.334 232.099 350.306 231.397 350.248 230.69V230.589C349.589 217.607 346.924 207.29 342.095 199.065C334.357 185.753 322.564 183.848 310.098 181.87L307.074 181.297C302.251 180.579 297.507 179.408 292.903 177.801C274.673 171.057 258.987 158.821 248.01 142.78C246.147 140 244.384 137.048 242.679 134.183C240.974 131.317 239.111 128.179 237.148 125.27C226.86 109.995 213.032 101.369 198.388 92.2267C194.791 89.977 191.065 87.6557 187.411 85.2341C176.328 78.04 163.368 74.2767 150.156 74.4156H150.041Z" fill="#231F20"/>
<path d="M237.048 159.588H236.89C236.798 159.568 236.711 159.53 236.634 159.475C236.557 159.421 236.492 159.351 236.443 159.271C236.393 159.191 236.36 159.101 236.346 159.008C236.332 158.915 236.337 158.82 236.36 158.728C237.664 153.154 244.843 149.959 245.144 149.83C245.231 149.78 245.328 149.748 245.428 149.738C245.528 149.728 245.629 149.738 245.725 149.77C245.821 149.801 245.909 149.852 245.983 149.92C246.058 149.988 246.117 150.07 246.158 150.162C246.198 150.254 246.219 150.354 246.218 150.455C246.218 150.555 246.196 150.655 246.154 150.747C246.113 150.838 246.052 150.92 245.977 150.987C245.901 151.054 245.813 151.104 245.717 151.134C245.717 151.134 238.896 154.172 237.75 159.058C237.706 159.211 237.614 159.345 237.487 159.441C237.361 159.536 237.206 159.588 237.048 159.588V159.588Z" fill="#D1D3D4"/>
<path d="M191.08 245.463C190.97 245.467 190.862 245.442 190.764 245.391C190.596 245.305 190.468 245.156 190.409 244.976C190.35 244.797 190.364 244.601 190.449 244.431C195.335 234.773 203.747 226.821 208.791 222.608C206.713 223.353 204.334 224.141 201.784 224.972C190.979 228.512 177.553 232.896 175.633 239.13C175.574 239.31 175.446 239.46 175.276 239.546C175.107 239.632 174.911 239.647 174.73 239.588C174.55 239.532 174.4 239.407 174.311 239.241C174.223 239.075 174.203 238.88 174.257 238.7C176.407 231.779 190.234 227.236 201.339 223.611C205.337 222.44 209.253 221.004 213.061 219.312C213.221 219.229 213.407 219.211 213.581 219.262C213.754 219.312 213.902 219.428 213.992 219.585C214.09 219.737 214.124 219.922 214.086 220.099C214.048 220.276 213.943 220.431 213.791 220.53C213.648 220.631 198.817 231.034 191.725 245.09C191.662 245.206 191.568 245.301 191.454 245.367C191.341 245.433 191.211 245.466 191.08 245.463Z" fill="#D1D3D4"/>
<path d="M284.119 236.866C283.988 236.866 283.86 236.83 283.749 236.762C283.637 236.694 283.547 236.595 283.489 236.479C283.404 236.309 283.389 236.113 283.448 235.934C283.507 235.754 283.635 235.604 283.804 235.519C293.92 230.503 305.799 225.775 317.219 228.727C317.844 228.826 318.443 229.049 318.982 229.381C319.52 229.713 319.988 230.148 320.358 230.661C320.417 230.742 320.458 230.835 320.479 230.933C320.5 231.031 320.5 231.132 320.479 231.23C320.459 231.328 320.417 231.421 320.359 231.502C320.3 231.583 320.225 231.651 320.138 231.702C320.052 231.752 319.955 231.784 319.856 231.795C319.756 231.805 319.655 231.795 319.56 231.765C319.464 231.734 319.376 231.684 319.301 231.617C319.227 231.55 319.167 231.469 319.125 231.377C318.553 230.69 317.746 230.241 316.861 230.117C305.899 227.251 294.321 231.908 284.434 236.794C284.338 236.846 284.229 236.871 284.119 236.866Z" fill="#D1D3D4"/>
<path d="M175.848 185.925C175.744 185.945 175.637 185.945 175.533 185.925C175.424 185.868 175.331 185.784 175.264 185.681C175.196 185.578 175.156 185.46 175.146 185.338C174.214 183.905 163.439 175.307 149.067 171.31C135.583 167.484 123.733 168.802 113.831 175.193C113.753 175.246 113.666 175.283 113.574 175.302C113.482 175.321 113.386 175.321 113.294 175.302C113.202 175.283 113.114 175.246 113.037 175.193C112.959 175.14 112.893 175.071 112.842 174.992C112.74 174.832 112.705 174.639 112.745 174.453C112.786 174.268 112.898 174.106 113.057 174.003C137.875 157.955 168.784 177.543 175.117 183.26C176.435 184.449 176.779 185.037 176.55 185.61C176.474 185.723 176.368 185.812 176.244 185.868C176.12 185.923 175.983 185.943 175.848 185.925Z" fill="#D1D3D4"/>
<path d="M143.048 233.054C142.907 233.059 142.767 233.021 142.647 232.945C142.528 232.869 142.434 232.759 142.378 232.629C142.322 232.499 142.307 232.355 142.335 232.216C142.362 232.077 142.431 231.949 142.532 231.85C170.431 202.347 189.819 210.844 190.592 211.216C190.765 211.296 190.9 211.441 190.965 211.62C191.031 211.799 191.023 211.996 190.944 212.169C190.864 212.342 190.718 212.476 190.54 212.542C190.361 212.608 190.164 212.6 189.991 212.52C189.804 212.434 170.704 204.152 143.564 232.839C143.497 232.908 143.417 232.963 143.328 233C143.24 233.037 143.144 233.055 143.048 233.054V233.054Z" fill="#D1D3D4"/>
<path d="M310.628 150.145L318.423 133.853C318.423 133.853 372.573 153.054 379.824 160.735C387.074 168.415 388.092 173.502 397.019 173.215H397.148C401.446 172.599 405.674 168.716 408.941 166.051C414.874 161.211 420.506 156.014 425.806 150.489C431.056 145.26 435.904 139.641 440.307 133.681C441.926 131.417 444.52 128.279 444.864 125.47C445.294 121.96 442.141 116.773 439.132 115.139C431.652 110.969 419.071 122.891 413.34 126.602C410.03 128.723 404.441 134.025 400.587 134.097C398.38 134.097 395.199 132.191 393.193 131.417C382.833 127.391 372.544 123.106 362.227 118.936C349.947 113.964 337.653 108.992 325.215 104.407C320.658 102.73 316.087 101.039 311.43 99.6779C309.525 99.1191 306.444 97.7578 304.409 98.3453C297.861 100.265 277.112 133.796 277.112 133.796" fill="white"/>
<path d="M396.302 173.932C389.826 173.932 387.404 170.937 383.793 166.466C382.532 164.904 381.113 163.142 379.308 161.236C372.659 154.186 324.757 136.876 318.781 134.741L311.273 150.504C311.237 150.595 311.183 150.678 311.113 150.748C311.043 150.818 310.96 150.872 310.869 150.908C310.777 150.944 310.679 150.961 310.581 150.958C310.483 150.954 310.386 150.931 310.297 150.888C310.208 150.846 310.129 150.785 310.065 150.711C310 150.637 309.952 150.55 309.922 150.456C309.893 150.362 309.883 150.263 309.894 150.165C309.904 150.068 309.935 149.973 309.983 149.887L317.778 133.595C317.853 133.437 317.984 133.312 318.145 133.243C318.306 133.174 318.486 133.167 318.652 133.223C320.873 134.011 373.103 152.581 380.354 160.305C382.188 162.268 383.635 164.045 384.911 165.621C388.622 170.221 390.642 172.785 396.961 172.556C400.587 172.04 404.198 169.06 407.121 166.667L408.453 165.578C414.366 160.756 419.979 155.578 425.262 150.074C430.486 144.872 435.31 139.282 439.691 133.352L440.436 132.32C441.955 130.256 443.847 127.691 444.119 125.456C444.52 122.246 441.468 117.317 438.817 115.841C433.272 112.76 424.115 119.638 418.068 124.195C416.392 125.456 414.945 126.545 413.77 127.319C412.91 127.878 411.849 128.68 410.732 129.526C407.436 132.033 403.696 134.87 400.63 134.928C398.61 134.706 396.658 134.067 394.898 133.051C394.21 132.721 393.565 132.42 393.007 132.205C385.713 129.339 378.334 126.359 371.212 123.45L362.041 119.71C350.033 114.853 337.61 109.823 325.029 105.195C320.816 103.633 316.03 101.87 311.302 100.48L309.998 100.05C308.264 99.463 306.1 98.7322 304.681 99.1477C299.523 100.667 283.517 125.026 277.786 134.283C277.737 134.363 277.673 134.432 277.598 134.486C277.523 134.541 277.437 134.58 277.346 134.602C277.256 134.623 277.162 134.626 277.07 134.611C276.978 134.595 276.89 134.562 276.811 134.512C276.73 134.464 276.659 134.399 276.603 134.323C276.547 134.247 276.506 134.161 276.483 134.069C276.461 133.977 276.456 133.881 276.471 133.788C276.485 133.694 276.518 133.604 276.568 133.523C277.427 132.091 297.546 99.7496 304.28 97.7005C306.129 97.1703 308.579 97.9727 310.456 98.6319L311.703 99.0331C316.474 100.466 321.289 102.214 325.53 103.776C338.126 108.419 350.549 113.448 362.571 118.32L371.742 122.046C378.907 124.912 386.243 127.964 393.537 130.801C394.11 131.016 394.783 131.345 395.514 131.689C397.084 132.575 398.803 133.163 400.587 133.423V133.423C403.18 133.423 406.877 130.557 409.843 128.308C410.975 127.448 412.05 126.631 412.967 126.044C414.128 125.299 415.561 124.224 417.266 122.977C423.986 117.905 433.214 110.984 439.576 114.523C442.686 116.257 446.082 121.688 445.595 125.571C445.279 128.164 443.273 130.901 441.654 133.108C441.396 133.452 441.153 133.781 440.923 134.111C436.497 140.1 431.625 145.748 426.351 151.005C421.025 156.548 415.369 161.764 409.414 166.624L408.081 167.699C405.029 170.22 401.246 173.344 397.277 173.903H396.36L396.302 173.932Z" fill="#231F20"/>
<path d="M168.611 108.046L151.316 110.396L125.122 90.1776L137.288 84.7182L131.212 69.3716C131.212 69.3716 88.0814 59.1406 80.8595 69.8158C61.8447 97.944 105.019 114.136 134.021 144.528C134.021 144.528 159.942 190.826 194.203 221.691C194.203 221.691 225.197 200.197 245.788 172.585L224.108 116.472C224.108 116.472 240.73 50.2135 232.993 43.2066C225.255 36.1996 174.63 57.4068 174.63 57.4068L184.273 69.8158L203.231 69.3716L199.949 87.584C199.949 87.584 177.481 96.3678 168.611 108.046Z" fill="#68E1FD"/>
<path d="M128.605 63.0095C129.74 61.9302 131.173 61.2166 132.719 60.9611C134.265 60.7056 135.851 60.92 137.274 61.5766C136.572 60.4868 136.175 59.2297 136.122 57.9349C136.069 56.6401 136.363 55.3547 136.973 54.2114C138.235 51.9697 139.954 50.0172 142.017 48.4797C144.683 46.0272 147.777 44.0846 151.144 42.748C159.985 39.6386 169.772 43.8084 177.238 49.5114C181.207 52.5492 185.964 57.2492 186.194 62.6083C186.394 67.5805 181.737 74.4442 179.273 78.657C175.748 84.6609 171.32 90.3353 165.416 94.0322C149.769 103.819 131.026 94.0322 126.011 77.2384C124.822 73.2979 124.578 68.7985 126.699 65.2449C127.206 64.3998 127.85 63.6445 128.605 63.0095V63.0095Z" fill="white"/>
<path d="M152.176 98.6748C149.089 98.6669 146.029 98.0939 143.149 96.984C138.882 95.3115 135.057 92.6823 131.966 89.2988C128.876 85.9153 126.603 81.8677 125.323 77.4677C123.89 72.653 124.148 68.1967 126.083 64.8866C126.628 63.9682 127.326 63.1493 128.146 62.465V62.465C129.173 61.5466 130.396 60.8755 131.723 60.5029C133.049 60.1303 134.443 60.0663 135.798 60.3156C135.142 58.2113 135.332 55.9341 136.328 53.9678C137.617 51.6002 139.401 49.5379 141.558 47.9209C144.298 45.4221 147.468 43.4413 150.915 42.0746C158.667 39.352 168.425 41.8596 177.668 48.9526C181.751 52.0907 186.666 56.9913 186.91 62.594C187.096 67.0933 183.571 72.9253 180.992 77.1811C180.591 77.8402 180.218 78.4564 179.889 79.0295C175.59 86.2801 171.019 91.3956 165.803 94.6627C161.728 97.2535 157.005 98.644 152.176 98.6748ZM129.063 63.554C128.375 64.1409 127.789 64.8382 127.329 65.6174C124.979 69.6009 125.896 74.4872 126.699 77.0808C127.91 81.2759 130.069 85.137 133.008 88.3666C135.946 91.5962 139.587 94.1081 143.65 95.7087C147.139 97.0482 150.894 97.5465 154.611 97.1631C158.328 96.7797 161.902 95.5254 165.044 93.502C170.059 90.3639 174.515 85.406 178.642 78.3561C178.986 77.7829 179.358 77.1524 179.774 76.4933C182.253 72.3951 185.649 66.7781 185.506 62.7229C185.291 57.6647 180.662 53.0937 176.837 50.1562C172.638 46.9322 161.777 39.8535 151.417 43.4932C148.132 44.7959 145.112 46.6846 142.504 49.0672C140.487 50.539 138.803 52.4186 137.56 54.5839C137.004 55.6073 136.731 56.761 136.771 57.9253C136.812 59.0895 137.163 60.2217 137.789 61.204C137.889 61.3349 137.94 61.4959 137.935 61.6601C137.93 61.8243 137.868 61.9817 137.761 62.1059C137.653 62.2302 137.506 62.3137 137.345 62.3426C137.183 62.3714 137.016 62.3438 136.872 62.2644C135.581 61.676 134.144 61.4845 132.743 61.7141C131.343 61.9437 130.042 62.5841 129.006 63.554H129.063Z" fill="#231F20"/>
<path d="M186.652 99.1764L194.132 111.027C194.132 111.027 195.794 120.427 183.055 123.35C170.317 126.273 164.671 117.733 164.671 117.733L148.465 93.7886C148.465 93.7886 154.655 85.0908 143.048 67.9961C154.319 67.3503 165.208 63.6826 174.572 57.3781C174.572 57.3781 189.632 74.5732 192.642 84.1451C195.651 93.717 186.652 99.1764 186.652 99.1764Z" fill="white"/>
<path d="M177.968 124.668C175.303 124.739 172.657 124.184 170.244 123.05C167.83 121.915 165.716 120.232 164.069 118.134L147.877 94.1898C147.794 94.0699 147.749 93.9274 147.749 93.7814C147.749 93.6355 147.794 93.493 147.877 93.3731C147.877 93.2871 153.609 84.7755 142.461 68.4259C142.391 68.3143 142.354 68.1852 142.354 68.0534C142.354 67.9216 142.391 67.7925 142.461 67.6808C142.524 67.5687 142.615 67.4753 142.726 67.4099C142.837 67.3445 142.963 67.3094 143.091 67.3083C154.234 66.6457 164.999 63.0197 174.272 56.805C174.418 56.7095 174.595 56.6701 174.768 56.6937C174.942 56.7174 175.101 56.8026 175.217 56.9339C175.833 57.6504 190.392 74.4299 193.43 83.9444C196.109 92.37 189.704 97.8724 187.698 99.377L194.863 110.654C194.907 110.735 194.941 110.822 194.963 110.912C194.963 111.012 196.582 120.942 183.328 124.038C181.572 124.458 179.773 124.67 177.968 124.668ZM149.31 93.7599L165.258 117.331C165.488 117.675 170.833 125.413 182.898 122.648C194.117 120.068 193.587 112.431 193.444 111.285L186.036 99.6206C185.937 99.4573 185.906 99.2618 185.95 99.0761C185.971 98.9813 186.011 98.8918 186.068 98.813C186.124 98.7341 186.196 98.6677 186.279 98.6175C186.623 98.4026 194.877 93.2728 192.011 84.446C189.346 76.0777 176.908 61.247 174.486 58.4098C165.46 64.2787 155.123 67.8275 144.395 68.7412C153.924 83.3999 150.456 91.7968 149.31 93.7599Z" fill="#231F20"/>
<path d="M158.452 98.6605C157.601 99.6837 156.557 100.529 155.38 101.149C154.202 101.768 152.914 102.15 151.588 102.271C149.726 102.373 147.868 101.996 146.192 101.176C144.516 100.356 143.079 99.1196 142.017 97.5858C141.147 96.5035 140.53 95.2404 140.211 93.8889C140.059 93.215 140.052 92.5164 140.19 91.8395C140.328 91.1626 140.609 90.5228 141.014 89.9627C142.201 88.7862 143.731 88.0184 145.384 87.7703C147.777 87.1542 148.622 88.0856 150.8 88.6444C150.585 88.6444 150.184 88.3148 149.969 88.2862" fill="white"/>
<path d="M150.743 103.017C148.912 102.966 147.119 102.488 145.506 101.619C143.894 100.751 142.507 99.5167 141.458 98.0157C140.514 96.8584 139.848 95.5008 139.509 94.0465C139.342 93.2809 139.337 92.4887 139.495 91.7211C139.653 90.9534 139.97 90.2275 140.426 89.5901C141.703 88.2808 143.374 87.4253 145.183 87.1542C146.581 86.7702 148.069 86.8972 149.382 87.5124L149.783 87.6557C149.873 87.6415 149.965 87.6415 150.055 87.6557C150.285 87.6988 150.504 87.7864 150.7 87.9136L150.901 88.0139C151.091 88.0519 151.258 88.1639 151.365 88.3251C151.473 88.4863 151.512 88.6837 151.474 88.8737C151.436 89.0637 151.324 89.2308 151.163 89.3383C151.001 89.4458 150.804 89.4849 150.614 89.4469H150.442C149.898 89.2981 149.363 89.1212 148.837 88.9167C147.798 88.3983 146.602 88.2859 145.484 88.6014C143.987 88.7996 142.594 89.4784 141.515 90.5359C141.172 91.0124 140.934 91.5567 140.818 92.1325C140.702 92.7083 140.71 93.3022 140.842 93.8746C141.135 95.1149 141.709 96.2717 142.518 97.2563C143.505 98.6965 144.846 99.8587 146.412 100.632C147.978 101.404 149.716 101.762 151.459 101.67C152.711 101.545 153.926 101.173 155.033 100.575C156.14 99.9777 157.117 99.1661 157.908 98.1877C157.967 98.115 158.04 98.0551 158.123 98.0113C158.207 97.9675 158.297 97.9408 158.391 97.9328C158.484 97.9248 158.579 97.9356 158.668 97.9646C158.757 97.9936 158.84 98.0402 158.911 98.1017C158.984 98.1601 159.046 98.2327 159.091 98.3152C159.136 98.3977 159.164 98.4884 159.173 98.582C159.182 98.6755 159.173 98.77 159.145 98.8598C159.117 98.9496 159.072 99.0329 159.011 99.1047C158.098 100.203 156.978 101.109 155.714 101.773C154.45 102.437 153.068 102.845 151.646 102.974C151.345 103.017 151.044 103.017 150.743 103.017Z" fill="#231F20"/>
<path d="M193 109.235C188.953 110.782 184.488 110.838 180.404 109.393C172.996 107.072 171.363 102.83 171.363 102.83C171.363 102.83 179.96 104.392 186.652 99.1764L193 109.235Z" fill="#231F20"/>
<path d="M186.724 111.084C184.505 111.077 182.302 110.729 180.189 110.052C172.538 107.645 170.761 103.232 170.689 103.045C170.646 102.927 170.635 102.8 170.658 102.677C170.68 102.553 170.736 102.438 170.818 102.343C170.896 102.243 171.001 102.167 171.12 102.124C171.239 102.081 171.368 102.073 171.492 102.1C171.578 102.1 179.846 103.532 186.208 98.5889C186.286 98.5276 186.376 98.4832 186.472 98.4585C186.568 98.4338 186.669 98.4294 186.767 98.4456C186.964 98.482 187.139 98.5954 187.254 98.7608L193.602 108.791C193.657 108.875 193.693 108.969 193.708 109.068C193.723 109.167 193.716 109.268 193.688 109.364C193.628 109.56 193.494 109.724 193.315 109.823C191.229 110.695 188.984 111.124 186.724 111.084V111.084ZM172.724 103.676C174.766 106.133 177.527 107.887 180.619 108.691C184.279 109.921 188.232 109.976 191.925 108.849L186.451 100.251C182.397 102.919 177.558 104.136 172.724 103.704V103.676Z" fill="#231F20"/>
<path d="M168.612 73.5128C168.612 73.5128 179.201 79.0725 178.642 81.3365C178.083 83.6006 173.641 84.7182 173.641 84.7182" fill="white"/>
<path d="M173.641 85.4347C173.48 85.4362 173.323 85.3832 173.195 85.2844C173.068 85.1856 172.978 85.0467 172.939 84.8902C172.895 84.7079 172.925 84.5158 173.021 84.355C173.118 84.1943 173.273 84.0778 173.455 84.0304C174.501 83.7582 177.567 82.5975 177.94 81.1646C178.14 80.2475 173.527 76.8659 168.282 74.1576C168.198 74.1139 168.123 74.0538 168.062 73.981C168.002 73.9082 167.956 73.824 167.928 73.7333C167.9 73.6427 167.89 73.5474 167.899 73.453C167.908 73.3585 167.936 73.2669 167.981 73.1833C168.069 73.017 168.22 72.8922 168.399 72.8359C168.579 72.7796 168.774 72.7963 168.941 72.8823C172.28 74.6305 179.96 78.9722 179.33 81.4798C178.699 83.9874 174.315 85.2628 173.813 85.3917L173.641 85.4347Z" fill="#231F20"/>
<path d="M162.155 78.8655C162.989 78.5004 163.247 77.2525 162.733 76.0781C162.219 74.9037 161.126 74.2477 160.293 74.6128C159.459 74.9778 159.2 76.2258 159.714 77.4002C160.229 78.5745 161.321 79.2306 162.155 78.8655Z" fill="#231F20"/>
<path d="M176.451 71.108C177.141 70.5134 177.02 69.2446 176.183 68.2739C175.345 67.3033 174.108 66.9984 173.418 67.593C172.729 68.1875 172.85 69.4564 173.687 70.427C174.525 71.3976 175.762 71.7025 176.451 71.108Z" fill="#231F20"/>
<path d="M179.975 96.6114C178.438 96.6065 176.923 96.2486 175.547 95.5654C173.482 94.5102 171.699 92.9776 170.345 91.0947V91.0947C170.288 91.0122 170.248 90.9187 170.228 90.8201C170.209 90.7215 170.209 90.6198 170.231 90.5215C170.317 90.106 170.36 89.9484 183.5 82.5975C183.646 82.5158 183.817 82.4882 183.982 82.5197C184.147 82.5511 184.296 82.6395 184.402 82.7694C184.56 82.9557 188.228 87.4981 187.268 91.8398C187.018 92.7123 186.577 93.5184 185.977 94.1998C185.378 94.8813 184.634 95.4211 183.801 95.7803C182.605 96.3441 181.296 96.6283 179.975 96.6114ZM171.95 90.8798C173.093 92.3177 174.529 93.4951 176.163 94.3331C177.239 94.8902 178.426 95.1976 179.636 95.2324C180.847 95.2671 182.05 95.0283 183.156 94.5337C183.785 94.279 184.352 93.8909 184.817 93.3961C185.282 92.9014 185.634 92.3118 185.85 91.6679C186.494 88.7017 184.488 85.4633 183.629 84.274C179.588 86.4091 173.784 89.6904 171.95 90.8225V90.8798Z" fill="#231F20"/>
<path d="M175.848 94.9206C180.963 97.3996 185.878 94.7343 186.552 91.6965C185.731 91.052 184.773 90.6045 183.752 90.3884C182.731 90.1722 181.674 90.1933 180.662 90.4499C178.58 91.3254 176.875 92.909 175.848 94.9206V94.9206Z" fill="#231F20"/>
<path d="M179.975 96.6114C178.438 96.6065 176.923 96.2486 175.547 95.5654C175.46 95.523 175.382 95.4633 175.318 95.3899C175.255 95.3166 175.207 95.2311 175.177 95.1386C175.148 95.0462 175.137 94.9487 175.147 94.8521C175.156 94.7555 175.185 94.6618 175.232 94.5767C176.35 92.4225 178.184 90.7252 180.419 89.7764C182.282 89.0743 184.474 89.5185 186.939 91.0947C187.06 91.1756 187.154 91.2916 187.208 91.4274C187.262 91.5631 187.273 91.712 187.239 91.8542C186.99 92.7213 186.55 93.5221 185.953 94.1987C185.356 94.8752 184.616 95.4106 183.786 95.766C182.596 96.3325 181.293 96.6216 179.975 96.6114ZM176.879 94.591C177.877 95.0063 178.949 95.2105 180.03 95.1908C181.11 95.171 182.174 94.9278 183.156 94.4764C184.276 93.9907 185.182 93.115 185.706 92.0118C185.022 91.517 184.237 91.1795 183.407 91.0235C182.577 90.8674 181.723 90.8966 180.906 91.109C179.229 91.8145 177.819 93.0336 176.879 94.591V94.591Z" fill="#231F20"/>
<path d="M245.774 172.585C245.774 172.585 273.215 124.883 275.12 123.98C277.026 123.077 318.423 149.773 318.423 149.773L290.667 208.694C290.667 208.694 240.73 198.492 245.774 172.585Z" fill="#231F20"/>
<path d="M290.668 209.468H290.524C282.082 207.558 273.875 204.728 266.05 201.028C250.288 193.276 242.98 183.389 245.086 172.47C245.102 172.391 245.126 172.314 245.158 172.241C251.621 161.007 272.856 124.281 274.762 123.335C276.668 122.39 299.738 136.905 318.81 149.243C318.954 149.337 319.06 149.48 319.107 149.646C319.155 149.812 319.141 149.989 319.068 150.145L291.312 209.053C291.257 209.177 291.166 209.282 291.052 209.356C290.937 209.43 290.804 209.469 290.668 209.468V209.468ZM246.462 172.843C242.163 196.199 284.893 206.717 290.266 207.935L317.492 150.088C302.36 140.315 278.23 125.213 275.321 124.654C273.344 126.645 257.08 154.372 246.462 172.843Z" fill="#231F20"/>
<path d="M295.812 173.058C295.812 173.058 357.542 147.093 366.025 154.702C374.508 162.311 383.75 275.698 386.086 276.758C396.188 281.329 413.827 288.322 414.486 288.35C417.796 288.479 433.372 289.611 427.483 296.16C422.668 301.519 415.89 299.713 409.485 300.057C400.988 300.516 399.125 300.802 390.628 301.032C382.881 301.232 375.133 301.38 367.386 301.476C365.184 301.498 363.035 300.803 361.264 299.494C359.493 298.186 358.196 296.336 357.571 294.225L336.836 199.524L310.055 212.692L295.812 173.058Z" fill="white"/>
<path d="M367.243 302.192C364.907 302.2 362.63 301.456 360.749 300.07C358.868 298.685 357.482 296.731 356.797 294.498L336.249 200.641L310.284 213.409C310.195 213.451 310.097 213.473 309.998 213.473C309.899 213.473 309.801 213.451 309.711 213.409C309.614 213.373 309.526 213.316 309.454 213.241C309.382 213.167 309.328 213.077 309.296 212.979L295.181 173.301C295.123 173.128 295.132 172.939 295.206 172.772C295.281 172.605 295.415 172.471 295.583 172.398C298.119 171.324 357.829 146.348 366.483 154.157C371.699 158.872 376.815 198.908 382.045 243.099C383.951 259.162 385.756 274.365 386.559 276.185C396.589 280.699 413.454 287.39 414.601 287.648C417.581 287.763 427.669 288.479 429.303 292.348C429.861 293.652 429.431 295.099 428.042 296.647C424.115 300.946 418.943 300.946 413.942 300.788C412.509 300.788 410.99 300.788 409.528 300.788C406.662 300.946 404.484 301.089 402.593 301.204C398.91 301.447 396.259 301.605 390.657 301.762C382.733 301.963 374.895 302.121 367.415 302.207L367.243 302.192ZM336.808 198.807C336.973 198.798 337.136 198.85 337.265 198.953C337.395 199.056 337.482 199.203 337.51 199.366L358.23 294.068C358.818 296.001 360.012 297.694 361.634 298.898C363.256 300.103 365.222 300.755 367.243 300.759H367.343C374.852 300.673 382.661 300.516 390.585 300.315C396.145 300.172 398.796 300 402.464 299.756C404.355 299.642 406.49 299.498 409.414 299.355C410.847 299.269 412.451 299.355 413.942 299.355C418.828 299.47 423.442 299.57 426.924 295.687C427.913 294.583 428.256 293.652 427.941 292.907C426.981 290.614 420.261 289.31 414.429 289.081C413.469 289.081 394.784 281.515 385.77 277.431C384.724 276.959 384.037 272.488 380.583 243.271C376.657 210.099 370.725 159.975 365.48 155.246C358.932 149.329 314.239 166.151 296.7 173.459L310.413 211.718L336.464 198.893C336.567 198.831 336.687 198.801 336.808 198.807V198.807Z" fill="#231F20"/>
<path d="M194.203 221.691C194.203 221.691 220.698 253.96 249.772 253.96C278.846 253.96 322.407 213.151 322.407 213.151L299.48 163.543L245.846 172.585C245.846 172.585 199.992 209.955 194.203 221.691Z" fill="#231F20"/>
<path d="M249.772 254.662C234.554 254.662 220.096 245.807 210.653 238.384C204.474 233.533 198.782 228.091 193.659 222.135C193.569 222.032 193.513 221.904 193.498 221.769C193.482 221.633 193.509 221.496 193.573 221.376C199.305 209.683 243.453 173.559 245.33 172.04C245.422 171.957 245.537 171.902 245.66 171.883L299.279 162.841C299.435 162.813 299.594 162.838 299.734 162.91C299.874 162.983 299.986 163.1 300.053 163.242L322.98 212.85C323.047 212.987 323.069 213.142 323.04 213.292C323.012 213.442 322.935 213.578 322.822 213.681C314.758 221.024 306.244 227.858 297.331 234.143C277.986 247.756 261.966 254.662 249.772 254.662ZM195.063 221.591C198.072 225.116 223.019 253.244 249.772 253.244C276.797 253.244 317.191 216.962 321.533 212.979L298.978 164.346L246.089 173.258C243.267 175.565 201.368 210.07 195.063 221.591Z" fill="#231F20"/>
<path d="M239.054 185.925C238.96 185.942 238.863 185.94 238.77 185.92C238.676 185.9 238.588 185.861 238.509 185.807C238.431 185.752 238.364 185.683 238.312 185.602C238.261 185.522 238.225 185.432 238.208 185.338C238.191 185.244 238.193 185.147 238.214 185.054C238.234 184.96 238.272 184.872 238.327 184.793C238.382 184.715 238.451 184.648 238.532 184.596C238.612 184.545 238.702 184.509 238.796 184.492C265.133 173.774 298.85 162.913 299.179 162.812C299.268 162.781 299.363 162.768 299.457 162.775C299.552 162.781 299.644 162.806 299.728 162.849C299.812 162.892 299.887 162.952 299.948 163.024C300.009 163.096 300.054 163.18 300.082 163.271C300.137 163.451 300.12 163.646 300.034 163.814C299.949 163.983 299.802 164.111 299.623 164.174C299.279 164.274 265.62 175.121 239.326 185.811C239.247 185.871 239.153 185.911 239.054 185.925V185.925Z" fill="white"/>
<path d="M424.66 123.98C424.66 123.98 394.726 145.288 388.178 159.803Z" fill="white"/>
<path d="M388.178 160.448C388.078 160.468 387.976 160.468 387.877 160.448C387.704 160.37 387.569 160.226 387.502 160.049C387.435 159.872 387.441 159.675 387.519 159.502C394.081 145.001 423.012 124.295 424.244 123.421C424.397 123.313 424.586 123.269 424.771 123.299C424.955 123.328 425.121 123.429 425.233 123.579C425.342 123.734 425.386 123.925 425.357 124.112C425.327 124.299 425.226 124.468 425.075 124.582C424.774 124.797 395.228 145.932 388.837 160.09C388.77 160.203 388.673 160.297 388.557 160.36C388.441 160.423 388.31 160.453 388.178 160.448V160.448Z" fill="#231F20"/>
<path d="M155.658 117.188C155.545 117.189 155.434 117.162 155.334 117.109C155.234 117.057 155.148 116.981 155.085 116.887C142.819 99.9215 113.401 83.9301 113.1 83.8442C112.946 83.7479 112.835 83.5968 112.788 83.4214C112.741 83.246 112.763 83.0594 112.848 82.8993C112.934 82.7392 113.077 82.6175 113.249 82.5588C113.421 82.5001 113.608 82.5089 113.774 82.5832C114.075 82.7408 143.793 98.8182 156.245 116.056C156.3 116.132 156.339 116.218 156.36 116.309C156.381 116.4 156.383 116.495 156.367 116.587C156.351 116.679 156.317 116.767 156.267 116.845C156.216 116.924 156.151 116.992 156.074 117.045C155.956 117.139 155.809 117.189 155.658 117.188V117.188Z" fill="#231F20"/>
<path d="M203.231 70.0881H203.102C202.915 70.0531 202.749 69.9468 202.64 69.7917C202.53 69.6365 202.485 69.4447 202.514 69.257C203.219 64.6255 205.307 60.3151 208.504 56.8909C208.571 56.8192 208.652 56.7621 208.742 56.723C208.833 56.684 208.93 56.6639 209.028 56.664C209.126 56.6641 209.223 56.6844 209.313 56.7237C209.403 56.7629 209.484 56.8203 209.551 56.8921C209.618 56.964 209.67 57.0489 209.703 57.1415C209.735 57.2341 209.749 57.3324 209.742 57.4304C209.735 57.5284 209.708 57.6239 209.663 57.7111C209.617 57.7982 209.555 57.8751 209.478 57.937C206.528 61.1702 204.599 65.2032 203.933 69.5293C203.895 69.6872 203.805 69.828 203.678 69.9292C203.551 70.0304 203.393 70.0863 203.231 70.0881Z" fill="#231F20"/>
<path d="M66.2009 243.342C102.359 243.342 131.671 235.285 131.671 225.345C131.671 215.405 102.359 207.347 66.2009 207.347C30.0428 207.347 0.730835 215.405 0.730835 225.345C0.730835 235.285 30.0428 243.342 66.2009 243.342Z" fill="white"/>
<path d="M66.2008 244.059C29.0882 244.059 0 235.834 0 225.345C0 214.856 29.0882 206.617 66.2008 206.617C103.313 206.617 132.387 214.842 132.387 225.345C132.387 235.848 103.313 244.059 66.2008 244.059ZM66.2008 208.05C31.1087 208.05 1.43292 215.974 1.43292 225.345C1.43292 234.716 31.1087 242.626 66.2008 242.626C101.293 242.626 130.954 234.702 130.954 225.345C130.954 215.988 101.307 208.05 66.2008 208.05V208.05Z" fill="#231F20"/>
<path d="M91.3485 311.248C90.7785 311.248 90.2318 311.022 89.8287 310.619C89.4256 310.216 89.1991 309.669 89.1991 309.099C89.1991 304.571 75.6867 298.753 66.2724 296.088C56.8009 298.753 43.3458 304.571 43.3458 309.099C43.3458 309.669 43.1193 310.216 42.7162 310.619C42.3131 311.022 41.7664 311.248 41.1964 311.248C40.6263 311.248 40.0796 311.022 39.6765 310.619C39.2734 310.216 39.047 309.669 39.047 309.099C39.047 299.527 61.3146 292.993 65.7709 291.789C66.1416 291.689 66.5323 291.689 66.9029 291.789C71.3593 292.993 93.6269 299.527 93.6269 309.099C93.6274 309.392 93.5678 309.683 93.4518 309.952C93.3358 310.222 93.1659 310.465 92.9524 310.666C92.739 310.868 92.4866 311.023 92.2107 311.123C91.9349 311.223 91.6414 311.266 91.3485 311.248V311.248Z" fill="#231F20"/>
<path d="M29.0023 182.658C34.4787 182.658 38.9181 178.219 38.9181 172.742C38.9181 167.266 34.4787 162.827 29.0023 162.827C23.526 162.827 19.0865 167.266 19.0865 172.742C19.0865 178.219 23.526 182.658 29.0023 182.658Z" fill="white"/>
<path d="M29.0023 183.403C26.8956 183.403 24.8361 182.779 23.0839 181.61C21.3316 180.44 19.9652 178.778 19.157 176.832C18.3489 174.887 18.1353 172.745 18.5432 170.678C18.951 168.611 19.9621 166.712 21.4488 165.219C22.9355 163.727 24.831 162.708 26.8962 162.292C28.9614 161.875 31.1036 162.08 33.0523 162.881C35.0011 163.681 36.669 165.041 37.8456 166.788C39.0222 168.536 39.6547 170.593 39.6632 172.699C39.6669 174.103 39.3941 175.493 38.8602 176.79C38.3263 178.088 37.5418 179.267 36.5517 180.261C35.5615 181.256 34.3851 182.045 33.0897 182.584C31.7943 183.123 30.4054 183.401 29.0023 183.403V183.403ZM29.0023 163.557C27.1838 163.557 25.4063 164.097 23.8949 165.108C22.3835 166.12 21.2063 167.557 20.5124 169.237C19.8185 170.918 19.6391 172.767 19.997 174.55C20.3549 176.333 21.234 177.97 22.5228 179.252C23.8117 180.535 25.4523 181.407 27.2369 181.756C29.0214 182.106 30.8695 181.918 32.5471 181.216C34.2247 180.514 35.6562 179.33 36.6603 177.814C37.6643 176.298 38.1958 174.518 38.1873 172.699C38.1759 170.271 37.2032 167.946 35.4819 166.232C33.7606 164.519 31.4308 163.557 29.0023 163.557Z" fill="#231F20"/>
<path d="M31.8825 225.159H57.9616L61.0854 173.244H28.7444L31.8825 225.159Z" fill="white"/>
<path d="M57.9615 225.904H31.8824C31.692 225.904 31.5087 225.831 31.3701 225.701C31.2316 225.57 31.1482 225.392 31.1373 225.202L28.0135 173.287C28.0056 173.186 28.0186 173.085 28.0518 172.99C28.0849 172.894 28.1375 172.807 28.2062 172.733C28.2748 172.659 28.3581 172.6 28.4507 172.559C28.5433 172.519 28.6433 172.499 28.7443 172.499H61.0852C61.1825 172.495 61.2795 172.511 61.3706 172.546C61.4616 172.58 61.5449 172.632 61.6154 172.699C61.6854 172.774 61.7393 172.862 61.7738 172.958C61.8083 173.054 61.8227 173.156 61.816 173.258L58.7496 225.202C58.746 225.3 58.7226 225.397 58.6806 225.486C58.6386 225.575 58.579 225.655 58.5054 225.721C58.4318 225.786 58.3456 225.836 58.2521 225.868C58.1587 225.899 58.0598 225.912 57.9615 225.904ZM32.5702 224.471H57.3167L60.3545 174.018H29.5324L32.5702 224.471Z" fill="#231F20"/>
<path d="M35.6654 221.103H54.1643L55.7262 193.778H34.1178L35.6654 221.103Z" fill="#68E1FD"/>
<path d="M50.0376 219.771C49.867 219.765 49.7029 219.705 49.5689 219.599C49.4349 219.493 49.3381 219.348 49.2925 219.183C49.0489 218.166 52.1583 175.322 53.5912 156.937C53.6066 156.75 53.6939 156.575 53.8348 156.45L66.817 144.715C66.8895 144.649 66.9742 144.598 67.0663 144.565C67.1585 144.531 67.2562 144.517 67.354 144.521C67.4518 144.526 67.5477 144.55 67.6363 144.592C67.7249 144.633 67.8044 144.692 67.8702 144.765C67.9361 144.837 67.9871 144.922 68.0202 145.014C68.0533 145.106 68.0679 145.204 68.0633 145.302C68.0586 145.399 68.0348 145.495 67.993 145.584C67.9513 145.673 67.8925 145.752 67.8201 145.818L55.0528 157.281C53.8061 174.118 50.6681 217.163 50.754 218.897C50.7772 218.989 50.7814 219.085 50.7663 219.179C50.7512 219.273 50.7171 219.363 50.6662 219.443C50.6153 219.524 50.5485 219.593 50.47 219.647C50.3915 219.701 50.3029 219.738 50.2095 219.756L50.0376 219.771Z" fill="#231F20"/>
<path d="M61.0853 228.741L60.1539 235.977L103.098 237.396L117.958 214.311L117.6 205.356L61.0853 228.741Z" fill="white"/>
<path d="M103.17 238.112L60.1826 236.679C60.0811 236.675 59.9816 236.651 59.8903 236.606C59.799 236.562 59.718 236.499 59.6524 236.421C59.5881 236.347 59.5407 236.26 59.5135 236.166C59.4863 236.072 59.4799 235.974 59.4948 235.877L60.4118 228.712C60.4296 228.586 60.4799 228.467 60.5578 228.367C60.6357 228.266 60.7385 228.188 60.856 228.139L117.37 204.754C117.472 204.701 117.585 204.674 117.7 204.674C117.815 204.674 117.928 204.701 118.03 204.754C118.126 204.817 118.206 204.901 118.263 205.001C118.32 205.101 118.353 205.212 118.359 205.327L118.717 214.283C118.73 214.431 118.69 214.578 118.603 214.698L103.743 237.783C103.68 237.878 103.595 237.957 103.495 238.014C103.396 238.072 103.285 238.105 103.17 238.112V238.112ZM61.0423 235.246L102.783 236.679L117.313 214.125L116.998 206.43L61.7444 229.242L61.0423 235.246Z" fill="#231F20"/>
<path d="M78.6243 203.45L61.0853 228.741L102.21 229.959L117.6 205.356L78.6243 203.45Z" fill="white"/>
<path d="M102.21 230.675L61.0853 229.457C60.9581 229.451 60.8347 229.412 60.7268 229.344C60.6189 229.276 60.5302 229.182 60.4691 229.07C60.4021 228.96 60.3666 228.834 60.3666 228.705C60.3666 228.576 60.4021 228.45 60.4691 228.34L78.0081 203.049C78.0767 202.949 78.1689 202.868 78.2765 202.813C78.384 202.758 78.5035 202.731 78.6242 202.733L117.6 204.639C117.726 204.644 117.848 204.683 117.955 204.75C118.061 204.818 118.148 204.913 118.206 205.025C118.264 205.137 118.292 205.262 118.286 205.388C118.28 205.514 118.241 205.636 118.173 205.743L102.783 230.331C102.724 230.432 102.64 230.516 102.54 230.576C102.44 230.636 102.327 230.67 102.21 230.675ZM62.4322 228.067L101.823 229.228L116.339 206.015L78.9825 204.224L62.4322 228.067Z" fill="#231F20"/>
<path d="M103.17 238.112C102.995 238.11 102.826 238.046 102.695 237.93C102.563 237.814 102.478 237.655 102.454 237.482L101.565 230.045C101.545 229.855 101.6 229.665 101.717 229.515C101.835 229.365 102.007 229.267 102.196 229.242C102.385 229.226 102.573 229.282 102.722 229.399C102.871 229.516 102.97 229.685 102.998 229.873L103.872 237.31C103.884 237.404 103.877 237.5 103.852 237.591C103.827 237.683 103.784 237.768 103.725 237.843C103.666 237.918 103.593 237.98 103.51 238.026C103.428 238.072 103.336 238.102 103.242 238.112H103.17Z" fill="#231F20"/>
<path d="M103.743 215.859L78.0511 214.756C77.9225 214.748 77.7981 214.707 77.6901 214.636C77.5821 214.566 77.4942 214.469 77.435 214.354C77.3721 214.245 77.339 214.122 77.339 213.996C77.339 213.87 77.3721 213.747 77.435 213.638L81.7337 207.39C81.8031 207.293 81.8958 207.214 82.0035 207.161C82.1111 207.109 82.2302 207.084 82.3499 207.089L107.827 208.336C107.954 208.344 108.077 208.385 108.182 208.455C108.288 208.526 108.373 208.623 108.429 208.737C108.492 208.846 108.525 208.97 108.525 209.096C108.525 209.221 108.492 209.345 108.429 209.454L104.345 215.544C104.28 215.643 104.19 215.724 104.085 215.779C103.98 215.834 103.862 215.862 103.743 215.859V215.859ZM79.3837 213.38L103.385 214.412L106.552 209.697L82.7081 208.522L79.3837 213.38Z" fill="#D1D3D4"/>
</svg>
